<svg aria-hidden="true" style="width:0;height:0;position:absolute;overflow:hidden" xmlns="http://www.w3.org/2000/svg"><defs><symbol id="icon-arrow" viewBox="0 0 32 32"><path d="M17.653 31.518a.696.696 0 0 1-.878.448c-.616-.199-.935-.199-1.551 0a.696.696 0 0 1-.429-1.325c.889-.288 1.52-.288 2.409 0a.696.696 0 0 1 .448.877zm9.761-8.662c-.674.976-1.843 1.558-3.129 1.558-1.12 0-2.372-.573-3.698-1.179-1.505-.688-3.061-1.4-4.586-1.41-1.525.01-3.081.721-4.586 1.41-1.326.606-2.578 1.179-3.698 1.179-1.286 0-2.456-.582-3.129-1.558-1.278-1.852-.294-3.945.575-5.792 0 0 4.491-9.185 4.728-9.682 1.84-3.859 2.999-6.064 3.851-6.666C14.406.248 15.187 0 16.001 0s1.596.247 2.259.716c.853.602 2.012 2.807 3.852 6.666.237.497 4.728 9.682 4.728 9.682.869 1.847 1.853 3.94.575 5.792zm-1.836-5.199s-2.939-6.059-4.123-8.428c-.155-.31-.362-.745-.602-1.248-.802-1.682-2.681-5.622-3.398-6.128-.427-.301-.931-.461-1.456-.461s-1.029.159-1.456.461c-.716.506-2.595 4.445-3.397 6.127-.24.503-4.725 9.675-4.725 9.675-.778 1.653-1.512 3.215-.689 4.408.413.599 1.155.956 1.983.956.817 0 1.935-.511 3.119-1.053 1.564-.715 3.336-1.526 5.162-1.536h.008c1.826.01 3.598.821 5.162 1.536 1.184.541 2.302 1.053 3.119 1.053.828 0 1.569-.358 1.983-.956.823-1.193.089-2.754-.689-4.408zM21.521 28.02a2.194 2.194 0 0 1-1.215 1.231 2.041 2.041 0 0 1-1.618-.048c-2.261-1.057-3.115-1.057-5.375 0a2.025 2.025 0 0 1-1.618.048 2.199 2.199 0 0 1-1.216-1.231c-.45-1.124.046-2.439 1.104-2.932 3.426-1.601 5.407-1.602 8.834 0 1.058.493 1.553 1.808 1.104 2.932zm-1.692-1.669h-.001c-3.041-1.421-4.615-1.421-7.656 0-.394.183-.576.711-.4 1.152a.792.792 0 0 0 .435.454.64.64 0 0 0 .516-.016c1.316-.615 2.296-.923 3.275-.923s1.96.308 3.277.923a.637.637 0 0 0 .515.015.787.787 0 0 0 .435-.453c.177-.442-.006-.969-.398-1.152z"/></symbol><symbol id="icon-search" viewBox="0 0 32 32"><path d="M23.484 20.688a12.901 12.901 0 0 0 2.514-7.684c0-7.18-5.82-13-13-13s-13 5.82-13 13 5.82 13 13 13c2.894 0 5.567-.946 7.727-2.545l-.035.025h-.002c.06.08.124.156.196.23l7.7 7.7a2 2 0 0 0 2.83-2.828l-7.7-7.7a2 2 0 0 0-.225-.196l-.005-.004zM24 13c0 6.075-4.925 11-11 11S2 19.075 2 13 6.925 2 13 2s11 4.925 11 11z"/></symbol><symbol id="icon-heart-fill" viewBox="0 0 32 32"><path d="M16 2.628C24.876-6.496 47.068 9.47 16 30-15.068 9.472 7.124-6.496 16 2.628z"/></symbol></defs></svg>