<svg aria-hidden="true" style="position: absolute; width: 0; height: 0; overflow: hidden;" version="1.1" xmlns="http://www.w3.org/2000/svg" xmlns:xlink="http://www.w3.org/1999/xlink">
<defs>

<symbol id="icon-arrow" viewBox="0 0 32 32">
<path d="M17.653 31.518c-0.095 0.295-0.369 0.482-0.663 0.482-0.071 0-0.143-0.011-0.215-0.034-0.616-0.199-0.935-0.199-1.551 0-0.366 0.118-0.759-0.082-0.877-0.448s0.082-0.759 0.448-0.877c0.889-0.288 1.52-0.288 2.409 0 0.366 0.118 0.567 0.511 0.448 0.877zM27.414 22.856c-0.674 0.976-1.843 1.558-3.129 1.558-1.12 0-2.372-0.573-3.698-1.179-1.505-0.688-3.061-1.4-4.586-1.41-1.525 0.010-3.081 0.721-4.586 1.41-1.326 0.606-2.578 1.179-3.698 1.179-1.286 0-2.456-0.582-3.129-1.558-1.278-1.852-0.294-3.945 0.575-5.792 0 0 4.491-9.185 4.728-9.682 1.84-3.859 2.999-6.064 3.851-6.666 0.664-0.468 1.445-0.716 2.259-0.716s1.596 0.247 2.259 0.716c0.853 0.602 2.012 2.807 3.852 6.666 0.237 0.497 4.728 9.682 4.728 9.682 0.869 1.847 1.853 3.94 0.575 5.792zM25.578 17.657c0 0-2.939-6.059-4.123-8.428-0.155-0.31-0.362-0.745-0.602-1.248-0.802-1.682-2.681-5.622-3.398-6.128-0.427-0.301-0.931-0.461-1.456-0.461s-1.029 0.159-1.456 0.461c-0.716 0.506-2.595 4.445-3.397 6.127-0.24 0.503-4.725 9.675-4.725 9.675-0.778 1.653-1.512 3.215-0.689 4.408 0.413 0.599 1.155 0.956 1.983 0.956 0.817 0 1.935-0.511 3.119-1.053 1.564-0.715 3.336-1.526 5.162-1.536 0.001 0 0.003 0 0.004 0s0.003 0 0.004 0c1.826 0.010 3.598 0.821 5.162 1.536 1.184 0.541 2.302 1.053 3.119 1.053 0.828 0 1.569-0.358 1.983-0.956 0.823-1.193 0.089-2.754-0.689-4.408zM21.521 28.020c-0.226 0.566-0.669 1.015-1.215 1.231-0.245 0.097-0.499 0.145-0.754 0.145-0.294 0-0.587-0.065-0.864-0.193-2.261-1.057-3.115-1.057-5.375-0-0.517 0.24-1.091 0.258-1.618 0.048-0.546-0.216-0.989-0.665-1.216-1.231-0.45-1.124 0.046-2.439 1.104-2.932 3.426-1.601 5.407-1.602 8.834 0 1.058 0.493 1.553 1.808 1.104 2.932zM19.829 26.351c-0-0-0.001-0-0.001-0-3.041-1.421-4.615-1.421-7.656 0-0.394 0.183-0.576 0.711-0.4 1.152 0.086 0.215 0.241 0.377 0.435 0.454 0.119 0.047 0.305 0.082 0.516-0.016 1.316-0.615 2.296-0.923 3.275-0.923s1.96 0.308 3.277 0.923c0.211 0.098 0.397 0.062 0.515 0.015 0.195-0.077 0.349-0.238 0.435-0.453 0.177-0.442-0.006-0.969-0.398-1.152z"></path>
</symbol>
<symbol id="icon-search" viewBox="0 0 32 32">
<path d="M23.484 20.688c1.571-2.123 2.514-4.794 2.514-7.684 0-7.18-5.82-13-13-13s-13 5.82-13 13c0 7.18 5.82 13 13 13 2.894 0 5.567-0.946 7.727-2.545l-0.035 0.025h-0.002c0.060 0.080 0.124 0.156 0.196 0.23l7.7 7.7c0.362 0.362 0.862 0.586 1.415 0.586 1.105 0 2-0.896 2-2 0-0.552-0.224-1.052-0.585-1.414l-7.7-7.7c-0.070-0.071-0.145-0.136-0.225-0.196l-0.005-0.004zM24 13c0 6.075-4.925 11-11 11s-11-4.925-11-11v0c0-6.075 4.925-11 11-11s11 4.925 11 11v0z"></path>
</symbol>
<symbol id="icon-heart-fill" viewBox="0 0 32 32">
<path d="M16 2.628c8.876-9.124 31.068 6.842 0 27.372-31.068-20.528-8.876-36.496 0-27.372z"></path>
</symbol>
</defs>
</svg>
